PathFileType	4	(X/Y/Z)	C:/Users/opensim2020/Desktop/walking_exp_matlab/subject06_walking23_straight_01.trc																																																																																																																																					
DataRate	CameraRate	NumFrames	NumMarkers	Units	OrigDataRate	OrigDataStartFrame	OrigNumFrames																																																																																																																																	
100	100	7	45	mm	100	830	106																																																																																																																																	
Frame#	Time	LFHD			RFHD			LBHD			RBHD			C7			T10			CLAV			STRN			RBAK			LSHO			LUPA			LELB			LFRM			LWRA			LWRB			LFIN			RSHO			RUPA			RELB			RFRM			RWRA			RWRB			RFIN			LASI			RASI			LPSI			RPSI			LTHI			LKNE			LTIB			LANK			LHEE			LTOE			RTHI			RKNE			RTIB			RANK			RHEE			RTOE			*39			*40			*41			*42			*43			*44		
		X1	Y1	Z1	X2	Y2	Z2	X3	Y3	Z3	X4	Y4	Z4	X5	Y5	Z5	X6	Y6	Z6	X7	Y7	Z7	X8	Y8	Z8	X9	Y9	Z9	X10	Y10	Z10	X11	Y11	Z11	X12	Y12	Z12	X13	Y13	Z13	X14	Y14	Z14	X15	Y15	Z15	X16	Y16	Z16	X17	Y17	Z17	X18	Y18	Z18	X19	Y19	Z19	X20	Y20	Z20	X21	Y21	Z21	X22	Y22	Z22	X23	Y23	Z23	X24	Y24	Z24	X25	Y25	Z25	X26	Y26	Z26	X27	Y27	Z27	X28	Y28	Z28	X29	Y29	Z29	X30	Y30	Z30	X31	Y31	Z31	X32	Y32	Z32	X33	Y33	Z33	X34	Y34	Z34	X35	Y35	Z35	X36	Y36	Z36	X37	Y37	Z37	X38	Y38	Z38	X39	Y39	Z39	X40	Y40	Z40	X41	Y41	Z41	X42	Y42	Z42	X43	Y43	Z43	X44	Y44	Z44	X45	Y45	Z45
																																																																																																																																								
93	0.92	408.27914	1658.01697	1341.57214	417.48538	1660.17981	1472.97546	274.79285	1607.44983	1356.05627	285.17334	1614.07874	1485.23389	276.26273	1452.77795	1418.04382	243.7029	1124.02136	1432.03235	386.52112	1376.69934	1426.72314	429.00531	1202.43933	1429.45398	200.01949	1285.96606	1497.97253	338.29401	1401.84229	1261.70569	332.70697	1200.0094	1189.53015	323.32913	1088.37244	1175.91687	345.53928	940.06549	1152.20898	395.88193	821.46191	1198.21826	342.90799	821.28931	1150.68848	379.69931	737.64032	1153.9342	332.06613	1415.30164	1583.83337	269.53497	1226.88574	1675.94653	264.02686	1104.30957	1690.54236	275.62695	984.93842	1709.01074	333.67209	845.6358	1676.13989	281.29907	847.38977	1717.22083	317.3403	771.00513	1717.32727	432.5126	968.60901	1340.71313	407.97256	971.03748	1558.45398	273.41275	992.08215	1352.07715	261.14877	989.08252	1518.79614	401.00354	649.64813	1288.71252	417.75803	489.1525	1325.34802	366.76877	236.1993	1341.64563	343.14853	69.8536	1393.19055	298.36133	58.91579	1437.49207	485.32675	39.95649	1401.68848	412.84024	633.97992	1609.90662	452.9628	513.52832	1593.35327	282.70755	325.49057	1585.92651	147.32419	198.77794	1542.1886	103.52876	204.64531	1495.17383	232.5713	70.48125	1548.7666	313.08725	1704.70117	1403.46301	NaN	NaN	NaN	NaN	NaN	NaN	NaN	NaN	NaN	NaN	NaN	NaN	NaN	NaN	NaN
94	0.93	422.89282	1659.25146	1341.72729	432.01941	1661.13159	1472.92566	289.11267	1609.12354	1356.25867	299.64487	1615.57007	1485.41907	290.15958	1454.09277	1418.02515	257.6427	1125.44641	1431.42224	400.55368	1377.99854	1426.56787	443.10992	1203.80164	1429.13196	214.0829	1287.22034	1497.36328	352.39096	1403.58667	1261.73486	349.59116	1202.10229	1188.58545	343.06775	1090.18237	1174.45325	370.05603	942.7019	1150.85889	424.89374	826.23541	1196.80884	371.91385	823.81219	1149.66199	411.77011	741.80072	1152.97546	345.83084	1416.57166	1583.68311	282.32474	1228.41638	1675.3186	275.73929	1105.69751	1689.50012	284.06363	986.00171	1708.2887	337.60098	844.53632	1676.28857	285.17892	848.30072	1717.51599	318.12512	770.28912	1717.65747	445.46808	969.2041	1339.82654	422.65771	972.98724	1557.41321	286.83459	993.43823	1352.24182	275.74634	991.05249	1519.1637	408.81717	649.64618	1288.93799	422.41177	488.64047	1324.65686	368.0546	236.43779	1341.3103	343.39322	70.09737	1393.11902	298.39789	59.30741	1437.23523	485.42538	39.86998	1401.5072	433.50897	637.76453	1609.24036	476.08176	518.35107	1591.57935	311.72009	323.68674	1585.49451	182.37207	190.30553	1543.07385	138.20378	192.57622	1495.95178	275.66324	68.51453	1552.61267	327.81763	1706.16162	1403.69153	NaN	NaN	NaN	NaN	NaN	NaN	NaN	NaN	NaN	NaN	NaN	NaN	NaN	NaN	NaN
95	0.94	437.30103	1660.1748	1341.8916	446.51352	1661.83447	1473.00122	303.47305	1610.46912	1356.47034	314.02606	1616.6969	1485.56982	304.46207	1455.06812	1417.90979	271.63269	1126.61621	1430.88843	414.6102	1379.00171	1426.45459	457.13348	1204.81189	1428.67847	228.1382	1288.18787	1496.77747	366.36749	1404.9762	1261.77576	366.43414	1203.82861	1187.94324	361.91064	1091.81189	1173.18701	394.36356	945.20471	1149.58447	453.40564	830.83899	1195.84265	400.59128	826.44458	1148.92102	444.02295	746.26758	1152.20142	359.729	1417.47778	1583.52808	294.90726	1229.62769	1674.70178	287.15195	1106.90845	1688.76709	292.36234	986.92896	1707.77661	341.75577	843.5058	1676.42456	289.28467	849.28064	1717.79834	319.24142	769.79871	1718.02673	458.27972	969.42743	1338.71045	437.48877	974.43701	1556.28516	299.76172	994.45392	1352.54797	290.35153	992.67407	1519.57483	417.30829	649.62177	1288.17847	427.01974	488.0881	1324.01563	369.50253	236.59395	1340.67346	343.56223	70.32333	1393.1958	298.4361	60.12385	1437.59888	485.56836	39.71056	1401.26379	453.72742	641.27228	1608.67261	498.31436	522.82391	1589.92603	340.85797	321.24881	1585.10999	218.21564	181.29051	1543.71289	173.92039	180.29248	1496.31079	319.1431	66.72941	1556.21423	342.44321	1707.30737	1403.97424	NaN	NaN	NaN	NaN	NaN	NaN	NaN	NaN	NaN	NaN	NaN	NaN	NaN	NaN	NaN
96	0.95	451.74902	1660.87537	1342.08472	461.0018	1662.27991	1473.11328	317.80273	1611.39148	1356.70142	328.3913	1617.36743	1485.76587	318.56149	1455.73547	1417.84753	285.63458	1127.37036	1430.39905	428.68283	1379.71338	1426.35144	471.14563	1205.45947	1428.19995	242.14442	1288.87939	1496.28027	380.40836	1406.01404	1261.74475	383.03003	1205.3092	1186.93909	381.09164	1093.0957	1171.71558	418.39581	947.63245	1148.32068	482.35016	836.08429	1194.69373	429.25464	829.11389	1148.45044	476.14874	750.98199	1151.64172	373.74591	1418.00598	1583.41614	307.22015	1230.44421	1674.12476	298.42795	1107.86072	1688.01355	300.55173	987.78473	1707.39856	346.18808	842.55664	1676.68494	293.668	850.34192	1718.20544	320.65527	769.61072	1718.32886	470.91949	969.33154	1337.37427	452.4136	975.42749	1554.99268	312.90085	994.95581	1352.99719	305.00635	993.8717	1520.05652	424.92822	649.2865	1288.10669	431.58456	487.4523	1323.4126	371.17935	236.6512	1340.62866	343.88809	70.419	1393.48975	298.59125	60.77122	1437.39038	485.7395	39.57605	1401.04309	473.60397	644.50226	1608.33252	519.95148	527.10663	1588.51294	370.20203	318.15805	1584.77942	254.76465	172.00122	1544.10852	210.69481	167.84348	1496.43518	362.90948	65.28432	1559.70374	356.96591	1708.10181	1404.29517	NaN	NaN	NaN	NaN	NaN	NaN	NaN	NaN	NaN	NaN	NaN	NaN	NaN	NaN	NaN
97	0.96	466.09659	1661.24438	1342.30139	475.31064	1662.3042	1472.99268	332.08658	1611.95105	1356.99622	342.79562	1617.82654	1486.02417	332.80984	1456.16992	1417.77991	299.49774	1127.82935	1430.12036	442.80743	1380.02856	1426.19946	485.12479	1205.70544	1427.65625	256.34048	1289.2113	1495.69214	394.43527	1406.6543	1261.73303	399.67569	1206.34229	1186.29285	399.75098	1094.17163	1170.32971	442.21652	949.85785	1147.1554	511.25803	841.63489	1193.74365	458.22144	831.87817	1147.95422	508.33777	756.08698	1151.24902	387.86191	1418.17285	1583.34717	319.76752	1231.13049	1673.44946	309.63275	1108.54858	1687.34521	308.86624	988.41266	1707.09351	350.56406	841.64325	1676.91003	298.19583	851.1803	1718.34229	322.52026	769.2547	1718.22437	483.38968	968.84302	1335.99719	467.35681	976.0343	1553.63306	325.41034	995.12347	1353.31079	319.3046	994.74542	1520.75696	431.60608	649.0545	1288.08948	436.22507	486.73425	1322.84058	373.23935	236.53053	1340.9231	344.00732	70.73294	1393.51379	298.93677	61.29648	1437.59094	485.93979	39.48505	1400.89502	493.43051	647.41913	1608.40405	540.74683	530.78894	1587.41565	399.53708	314.73959	1584.68994	292.16394	162.53421	1544.26904	248.34274	155.23653	1496.59265	406.58575	63.43201	1561.69299	371.42044	1708.49963	1404.62219	NaN	NaN	NaN	NaN	NaN	NaN	NaN	NaN	NaN	NaN	NaN	NaN	NaN	NaN	NaN
98	0.97	480.43759	1661.29346	1342.55798	489.69263	1662.12659	1473.0885	346.41968	1612.12744	1357.22278	357.1806	1617.76575	1486.26282	347.1026	1456.28394	1417.76428	313.43951	1127.82947	1429.901	456.96384	1380.00049	1426.08069	499.10001	1205.5885	1427.05566	270.50085	1289.31262	1495.15002	408.49289	1406.90564	1261.74792	416.07129	1207.11255	1185.36768	418.1543	1094.87585	1169.06372	466.01523	952.18555	1146.04468	539.87048	847.3808	1192.74695	486.77914	834.81592	1147.75061	540.51257	761.46826	1150.948	402.15182	1417.92017	1583.25806	332.07339	1231.27173	1672.90784	320.82538	1108.92236	1686.81006	317.44315	988.85132	1706.70715	355.25375	840.70825	1677.3092	303.03741	851.99701	1718.6532	324.94675	769.33197	1719.02271	495.6806	968.09418	1334.5343	482.31775	976.28729	1552.19604	337.91916	994.93951	1353.81042	333.9147	995.20398	1521.43311	439.22281	648.30957	1288.63196	440.91586	485.92102	1322.39185	375.49649	236.38631	1341.42651	344.35431	70.93381	1393.7417	300.15433	61.29943	1437.63635	486.20398	39.42836	1400.74365	512.30707	649.83807	1608.10852	561.1521	534.10699	1586.5603	429.04428	311.13019	1584.57068	330.36313	152.95189	1544.42517	287.36359	142.57057	1496.23572	450.71973	61.47846	1563.25012	385.76782	1708.58301	1405.00366	NaN	NaN	NaN	NaN	NaN	NaN	NaN	NaN	NaN	NaN	NaN	NaN	NaN	NaN	NaN
99	0.98	494.72934	1661.0614	1342.84277	504.00098	1661.69446	1473.25366	360.72409	1611.89575	1357.52356	371.51065	1617.37085	1486.56812	361.42911	1456.06445	1417.71436	327.08136	1127.73181	1429.86829	471.17355	1379.58826	1425.92578	513.04169	1205.1438	1426.46313	284.59131	1289.10315	1494.65186	422.69711	1406.79614	1261.76941	432.4668	1207.38062	1184.88293	436.60461	1095.24878	1167.68652	489.47638	954.37244	1145.10278	568.42145	853.45581	1191.89368	515.36511	837.84619	1147.59998	572.37946	767.25458	1150.80151	416.49612	1417.29907	1583.18835	344.77005	1231.30469	1672.25513	332.07101	1109.05933	1686.2821	326.03922	989.06946	1706.57605	360.26797	839.80267	1677.84424	308.16248	852.61621	1719.00891	327.73743	769.31104	1719.65332	507.90009	967.01849	1332.97925	497.28134	976.24274	1550.75598	350.39456	994.51013	1354.45227	348.60138	995.22473	1522.12671	447.28738	647.85272	1288.18616	445.91412	485.06195	1321.87366	377.45053	236.54602	1341.95972	344.63565	71.10806	1393.95959	300.43546	61.69091	1437.98279	486.36145	39.3842	1400.70984	531.20703	651.95135	1608.30847	580.81525	536.82056	1586.02075	458.52277	307.16916	1584.51917	369.19162	143.41811	1544.46484	326.62933	130.68399	1496.0603	494.47028	59.22154	1563.53369	400.05038	1708.20691	1405.40942	NaN	NaN	NaN	NaN	NaN	NaN	NaN	NaN	NaN	NaN	NaN	NaN	NaN	NaN	NaN
